:SAMPLES-PER-SECOND 30
:FULLY-SPECIFIED
:DEGREES
195
root  -3.17259 41.0203 -0.114949 4.71777 -81.0422 -1.3474
RightUpLeg  1.09763 -1.30395 -0.837096
RightLeg  -6.67302 -28.3553 4.12606
RightFoot  2.73252 -0.1932 1.71554
RightToes  -3.1126e-008 1.75238e-005 3.56266e-009
Spine  10.2398 3.11838 -2.25476
Spine1  -15.4324 2.94689 0.297623
HEad  -2.59966 -5.27337 1.91893
LeftShoulder1  0.175131 2.73882 -16.1026
LeftArm  -35.9208 -8.16652 -39.9845
LeftForeArm  56.0029 -75.7081 -40.47
LeftHand  -0.655981 -3.89065 8.45918
RightShoulder  0.567251 -0.967145 15.7687
RightArm  -36.2225 6.1402 26.9693
RightForeArm  90.3495 79.2423 100.76
RightHand  -0.00914562 8.17515 -0.452152
LeftUpLeg  -2.38298 1.02067 3.44325
LeftLeg  -2.69326 9.32754 -1.01841
LeftFoot  2.64716 0.395264 -3.35317
LeftToes  4.78049e-008 1.46235e-008 1.34219e-009
196
root  -3.071 41.0297 -0.0459086 10.1807 -84.6842 -6.95416
RightUpLeg  0.617827 -1.01235 -0.77823
RightLeg  -6.33067 -25.0697 3.61685
RightFoot  3.19434 -0.206587 1.79035
RightToes  -3.1126e-008 1.75238e-005 3.56266e-009
Spine  10.4188 2.81447 -2.63688
Spine1  -15.2001 2.5989 0.951612
HEad  -3.51178 -5.71184 2.35654
LeftShoulder1  0.157859 2.81623 -16.163
LeftArm  -35.8905 -8.28981 -40.5566
LeftForeArm  55.9522 -75.5182 -39.6089
LeftHand  -0.549365 -3.90031 7.13578
RightShoulder  0.573688 -0.934515 15.7219
RightArm  -36.6174 5.89384 26.523
RightForeArm  89.9165 79.2863 99.953
RightHand  -0.114079 8.4718 -1.34222
LeftUpLeg  -1.79587 1.24478 3.57594
LeftLeg  -2.78947 12.6759 -1.15655
LeftFoot  2.44744 0.396502 -3.40228
LeftToes  4.78049e-008 1.46235e-008 1.34219e-009
197
root  -2.97207 41.0319 0.0242103 3.57028 -88.1819 -0.27124
RightUpLeg  0.0581974 -0.649691 -0.656308
RightLeg  -6.36526 -22.1226 3.2946
RightFoot  3.71997 -0.219953 1.8557
RightToes  -3.1126e-008 1.75238e-005 3.56266e-009
Spine  10.3758 2.39953 -2.71524
Spine1  -14.887 2.183 1.06407
HEad  -4.12687 -6.69624 2.41886
LeftShoulder1  0.201612 2.63106 -16.3185
LeftArm  -36.01 -8.06819 -40.3458
LeftForeArm  55.5677 -75.5567 -39.906
LeftHand  -0.548324 -4.06927 7.00115
RightShoulder  0.494553 -1.28224 15.6688
RightArm  -36.8661 6.02853 26.6294
RightForeArm  89.4473 79.2755 99.815
RightHand  0.00814164 8.74616 -0.321427
LeftUpLeg  -1.5059 1.46991 3.71186
LeftLeg  -2.8124 15.8134 -1.31453
LeftFoot  2.23943 0.39336 -3.41754
LeftToes  4.78049e-008 1.46235e-008 1.34219e-009
198
root  -2.8623 41.0275 0.0886546 138.521 -88.1779 -135.154
RightUpLeg  -0.572115 -0.438405 -0.622293
RightLeg  -6.26979 -19.2177 3.02693
RightFoot  4.13055 -0.231085 1.90876
RightToes  -3.1126e-008 1.75238e-005 3.56266e-009
Spine  10.718 2.09172 -2.97973
Spine1  -15.1231 1.84933 1.32036
HEad  -5.15798 -8.00591 2.93299
LeftShoulder1  0.227273 2.52119 -16.3228
LeftArm  -35.7133 -7.87148 -40.5962
LeftForeArm  55.4412 -75.4391 -39.416
LeftHand  -0.557169 -3.9094 7.22156
RightShoulder  0.428694 -1.56548 15.5399
RightArm  -37.176 6.25639 26.9588
RightForeArm  88.902 79.2859 99.3551
RightHand  -0.0315949 8.41355 -0.650196
LeftUpLeg  -1.25243 1.79758 3.83628
LeftLeg  -2.82335 18.7311 -1.60549
LeftFoot  2.05385 0.376403 -3.31163
LeftToes  4.78049e-008 1.46235e-008 1.34219e-009
199
root  -2.76166 41.0235 0.158334 173.891 -85.3539 -170.444
RightUpLeg  -1.10501 -0.21309 -0.559335
RightLeg  -6.31629 -16.5615 2.79556
RightFoot  4.60499 -0.251459 2.0192
RightToes  -3.1126e-008 1.75238e-005 3.56266e-009
Spine  11.0545 1.71546 -3.31838
Spine1  -15.2329 1.44076 1.67292
HEad  -6.27472 -8.98609 3.42733
LeftShoulder1  0.17063 2.75826 -16.0343
LeftArm  -35.3678 -7.82942 -41.3564
LeftForeArm  55.2879 -75.376 -39.1882
LeftHand  -0.583186 -3.93329 7.53091
RightShoulder  0.500902 -1.27446 15.9149
RightArm  -37.3928 6.19001 26.2264
RightForeArm  89.4646 79.2287 100.425
RightHand  -0.0886624 8.11849 -1.13698
LeftUpLeg  -1.07989 1.94768 3.85077
LeftLeg  -2.77366 21.5185 -1.71521
LeftFoot  1.9188 0.364039 -3.23222
LeftToes  4.78049e-008 1.46235e-008 1.34219e-009
